<svg width="224" height="84" viewBox="0 0 224 84" fill="none" xmlns="http://www.w3.org/2000/svg">
<path d="M224 8C224 3.58173 220.418 0 216 0H8C3.58173 0 1.52588e-05 3.58172 1.52588e-05 8V69.8628C1.52588e-05 76.0828 6.78705 79.9235 12.1192 76.7208L22.9876 70.1928C24.2317 69.4456 25.6556 69.0508 27.1068 69.0508H216C220.418 69.0508 224 65.4691 224 61.0508V8Z" fill="#121212"/>
<g clip-path="url(#clip0_1294_959)">
<path d="M102.009 29.7832C102.009 30.3368 102.07 30.7855 102.176 31.1146C102.312 31.4849 102.474 31.8449 102.664 32.1916C102.74 32.3113 102.77 32.4309 102.77 32.5358C102.77 32.6852 102.679 32.8349 102.481 32.9845L101.521 33.6128C101.384 33.7026 101.247 33.7474 101.125 33.7474C100.973 33.7474 100.821 33.6726 100.668 33.5379C100.463 33.3213 100.279 33.0859 100.12 32.8349C99.9675 32.5808 99.8152 32.2963 99.6477 31.9524C98.4596 33.3285 96.9668 34.0167 95.1695 34.0167C93.8901 34.0167 92.8695 33.6576 92.1231 32.9397C91.3769 32.2215 90.9961 31.2641 90.9961 30.0675C90.9961 28.796 91.453 27.7638 92.3822 26.9859C93.3112 26.2081 94.5451 25.8191 96.114 25.8191C96.6318 25.8191 97.1649 25.8639 97.7284 25.9388C98.2921 26.0136 98.8709 26.1332 99.4802 26.2679V25.1759C99.4802 24.0389 99.2364 23.2462 98.7642 22.7824C98.2769 22.3186 97.4542 22.0942 96.2814 22.0942C95.7483 22.0942 95.2001 22.1542 94.6364 22.2888C94.0729 22.4233 93.5245 22.5879 92.9913 22.7974C92.7477 22.9021 92.5649 22.9619 92.4582 22.9919C92.3517 23.0219 92.2755 23.0367 92.2146 23.0367C92.0013 23.0367 91.8947 22.8871 91.8947 22.5729V21.8399C91.8947 21.6006 91.9253 21.4211 92.0013 21.3165C92.0775 21.2116 92.2146 21.107 92.4278 21.0024C92.961 20.7331 93.6007 20.5086 94.3469 20.3291C95.0935 20.1346 95.8856 20.045 96.7233 20.045C98.536 20.045 99.8612 20.4488 100.714 21.2566C101.552 22.0644 101.978 23.291 101.978 24.9366V29.7832H102.009ZM95.8245 32.057C96.3272 32.057 96.8451 31.9674 97.3933 31.7877C97.9417 31.6082 98.4292 31.2791 98.8404 30.8304C99.0842 30.5462 99.2669 30.2321 99.3582 29.873C99.4497 29.5141 99.5106 29.0801 99.5106 28.5715V27.9433C99.0487 27.8329 98.5808 27.748 98.1092 27.689C97.6343 27.6298 97.1561 27.5998 96.6775 27.5992C95.6568 27.5992 94.9106 27.7936 94.408 28.1976C93.9052 28.6015 93.6616 29.1699 93.6616 29.9178C93.6616 30.6209 93.8443 31.1445 94.2251 31.5036C94.5907 31.8775 95.1239 32.057 95.8245 32.057ZM108.056 33.6726C107.781 33.6726 107.599 33.6278 107.477 33.5229C107.355 33.4333 107.248 33.2238 107.157 32.9397L103.578 21.3763C103.486 21.077 103.44 20.8825 103.44 20.7779C103.44 20.5386 103.562 20.4038 103.806 20.4038H105.299C105.588 20.4038 105.786 20.4488 105.893 20.5534C106.015 20.6432 106.106 20.8527 106.197 21.1368L108.756 31.0398L111.132 21.1368C111.209 20.8377 111.3 20.6432 111.422 20.5534C111.544 20.4638 111.757 20.4039 112.031 20.4039H113.25C113.539 20.4039 113.737 20.4488 113.859 20.5534C113.981 20.6432 114.087 20.8527 114.148 21.1368L116.555 31.1595L119.19 21.1368C119.281 20.8377 119.388 20.6432 119.495 20.5534C119.616 20.4638 119.814 20.4039 120.089 20.4039H121.505C121.749 20.4039 121.886 20.5236 121.886 20.7779C121.886 20.8527 121.871 20.9275 121.855 21.0172C121.84 21.107 121.81 21.2266 121.749 21.3913L118.078 32.9545C117.987 33.2538 117.88 33.4483 117.758 33.5379C117.636 33.6278 117.438 33.6876 117.179 33.6876H115.87C115.58 33.6876 115.382 33.6428 115.26 33.5379C115.138 33.4333 115.032 33.2388 114.971 32.9397L112.61 23.291L110.264 32.9245C110.188 33.2238 110.097 33.4183 109.975 33.5229C109.853 33.6278 109.64 33.6726 109.366 33.6726H108.056ZM127.628 34.0765C126.836 34.0765 126.044 33.9867 125.283 33.8072C124.521 33.6278 123.927 33.4331 123.531 33.209C123.287 33.0742 123.12 32.9247 123.059 32.7901C123 32.658 122.969 32.5154 122.968 32.3711V31.6082C122.968 31.2941 123.089 31.1445 123.318 31.1445C123.411 31.1448 123.504 31.16 123.592 31.1895C123.683 31.2195 123.821 31.2791 123.973 31.3389C124.511 31.5713 125.072 31.7469 125.648 31.8625C126.245 31.9814 126.852 32.0416 127.461 32.042C128.421 32.042 129.167 31.8775 129.685 31.5484C130.203 31.2193 130.477 30.7407 130.477 30.1273C130.477 29.7085 130.34 29.3644 130.066 29.0801C129.791 28.796 129.273 28.5417 128.527 28.3022L126.319 27.6292C125.207 27.2851 124.384 26.7765 123.881 26.1032C123.379 25.445 123.12 24.7121 123.12 23.9342C123.12 23.306 123.257 22.7524 123.531 22.2736C123.805 21.7951 124.171 21.3763 124.628 21.0472C125.085 20.7031 125.603 20.4488 126.212 20.2693C126.821 20.0898 127.461 20.015 128.131 20.015C128.466 20.015 128.817 20.03 129.152 20.0748C129.502 20.1196 129.822 20.1795 130.142 20.2393C130.446 20.3141 130.736 20.3889 131.01 20.4788C131.284 20.5684 131.497 20.6582 131.65 20.7479C131.863 20.8677 132.015 20.9874 132.107 21.122C132.198 21.2416 132.244 21.4061 132.244 21.6156V22.3186C132.244 22.6328 132.122 22.7974 131.893 22.7974C131.771 22.7974 131.573 22.7374 131.315 22.6178C130.446 22.2288 129.472 22.0344 128.39 22.0344C127.522 22.0344 126.836 22.169 126.364 22.4533C125.892 22.7374 125.648 23.1714 125.648 23.7846C125.648 24.2035 125.801 24.5625 126.105 24.8468C126.41 25.1309 126.973 25.4152 127.781 25.6695L129.944 26.3427C131.04 26.6868 131.832 27.1654 132.305 27.7786C132.777 28.3921 133.005 29.0951 133.005 29.873C133.005 30.5162 132.868 31.0996 132.609 31.6082C132.335 32.1168 131.97 32.5656 131.497 32.9247C131.025 33.2986 130.462 33.5679 129.807 33.7624C129.121 33.9719 128.405 34.0765 127.628 34.0765Z" fill="white"/>
<path d="M130.506 41.3466C125.495 44.9817 118.214 46.9114 111.954 46.9114C103.181 46.9114 95.2753 43.7251 89.3045 38.4295C88.8323 38.0108 89.2587 37.4423 89.8222 37.7713C96.2805 41.4514 104.247 43.6802 112.487 43.6802C118.047 43.6802 124.155 42.5434 129.775 40.2098C130.613 39.8356 131.329 40.7483 130.506 41.3466ZM132.593 39.0129C131.954 38.2052 128.359 38.624 126.729 38.8185C126.241 38.8785 126.165 38.4595 126.607 38.1454C129.471 36.1707 134.177 36.7393 134.726 37.3973C135.274 38.0706 134.573 42.6929 131.892 44.9069C131.481 45.251 131.085 45.0715 131.268 44.6228C131.877 43.1416 133.233 39.8058 132.593 39.0129Z" fill="#FF9900"/>
</g>
<defs>
<clipPath id="clip0_1294_959">
<rect width="46" height="27" fill="white" transform="translate(89 20)"/>
</clipPath>
</defs>
</svg>
