<svg width="224" height="84" viewBox="0 0 224 84" fill="none" xmlns="http://www.w3.org/2000/svg">
<path d="M224 8C224 3.58173 220.418 0 216 0H8C3.58173 0 0 3.58172 0 8V69.8628C0 76.0828 6.78705 79.9235 12.1192 76.7208L22.9876 70.1928C24.2317 69.4456 25.6556 69.0508 27.1068 69.0508H216C220.418 69.0508 224 65.4691 224 61.0508V8Z" fill="#121212"/>
<g clip-path="url(#clip0_1294_957)">
<path d="M128.981 24.13C128.993 24.1779 129 24.2272 129 24.2769V31.9907C129 32.1922 128.895 32.3784 128.725 32.4786L122.419 36.2064V43.5946C122.419 43.6934 122.394 43.7905 122.346 43.8762C122.298 43.9619 122.229 44.033 122.145 44.0826L108.983 51.8626C108.952 51.88 108.92 51.8912 108.887 51.9033C108.874 51.9074 108.863 51.9152 108.85 51.9187C108.758 51.9436 108.661 51.9436 108.569 51.9187C108.554 51.9146 108.54 51.9061 108.526 51.9005C108.496 51.8891 108.464 51.8793 108.435 51.8626L95.2753 44.0825C95.1917 44.0332 95.1222 43.9621 95.0739 43.8765C95.0255 43.7908 95 43.6936 95 43.5946V20.4531C95 20.4024 95.0069 20.3531 95.0191 20.3054C95.0232 20.2892 95.0328 20.2745 95.0384 20.2582C95.0486 20.2288 95.0583 20.1985 95.0733 20.1711C95.0835 20.1528 95.0985 20.1381 95.1109 20.1212C95.1267 20.0987 95.141 20.0755 95.1595 20.0557C95.1753 20.0396 95.1959 20.0277 95.2137 20.0136C95.2336 19.9967 95.2513 19.9784 95.2739 19.9651H95.2745L101.855 16.0752C101.938 16.0259 102.033 16 102.129 16C102.225 16 102.319 16.0259 102.403 16.0752L108.983 19.9651H108.984C109.006 19.9792 109.025 19.9967 109.045 20.0129C109.062 20.027 109.082 20.0397 109.098 20.0552C109.117 20.0755 109.131 20.0988 109.147 20.1212C109.159 20.1381 109.175 20.1528 109.184 20.1711C109.2 20.1992 109.209 20.2288 109.22 20.2584C109.225 20.2745 109.235 20.2892 109.239 20.3061C109.252 20.354 109.258 20.4035 109.258 20.4531V34.9068L114.742 31.6651V24.2762C114.742 24.2271 114.749 24.1771 114.761 24.13C114.766 24.1131 114.775 24.0984 114.78 24.0823C114.791 24.0527 114.801 24.0223 114.816 23.995C114.826 23.9767 114.841 23.962 114.853 23.9451C114.869 23.9226 114.883 23.8994 114.902 23.8796C114.918 23.8636 114.938 23.8516 114.955 23.8375C114.976 23.8206 114.994 23.8023 115.016 23.789H115.016L121.597 19.8991C121.681 19.8498 121.775 19.8238 121.871 19.8238C121.967 19.8238 122.062 19.8498 122.145 19.8991L128.725 23.789C128.749 23.803 128.767 23.8206 128.787 23.8367C128.804 23.8509 128.824 23.8636 128.84 23.879C128.859 23.8994 128.873 23.9226 128.889 23.9451C128.901 23.962 128.916 23.9767 128.926 23.995C128.942 24.0223 128.951 24.0527 128.962 24.0823C128.968 24.0984 128.977 24.1131 128.981 24.13ZM127.903 31.6652V25.2506L125.6 26.6117L122.419 28.4924V34.907L127.904 31.6652H127.903ZM121.323 43.2691V36.85L118.193 38.6851L109.258 43.9214V50.4006L121.323 43.2691ZM96.0969 21.4267V43.2691L108.161 50.4001V43.9221L101.858 40.2599L101.856 40.2586L101.854 40.2572C101.833 40.2445 101.815 40.2262 101.795 40.2108C101.778 40.1966 101.758 40.1855 101.743 40.1699L101.741 40.1679C101.724 40.1503 101.711 40.1285 101.696 40.1088C101.682 40.0897 101.666 40.0736 101.655 40.054L101.654 40.0518C101.642 40.0308 101.635 40.0055 101.626 39.9816C101.617 39.9605 101.605 39.9407 101.6 39.9183V39.9176C101.593 39.8909 101.591 39.8627 101.589 39.8353C101.586 39.8143 101.58 39.7931 101.58 39.772V24.6686L98.3997 22.7871L96.0969 21.4276V21.4267ZM102.13 17.2127L96.6467 20.4531L102.128 23.6934L107.61 20.4523L102.128 17.2127H102.13ZM104.981 37.4351L108.161 35.5552V21.4267L105.859 22.7879L102.677 24.6685V38.7969L104.981 37.4351ZM121.871 21.0366L116.389 24.2769L121.871 27.5173L127.352 24.2762L121.871 21.0366ZM121.323 28.4924L118.141 26.6117L115.839 25.2506V31.6652L119.019 33.5452L121.323 34.907L121.323 28.4924ZM108.709 42.9478L116.749 38.2345L120.769 35.8792L115.291 32.641L108.984 36.3692L103.235 39.7671L108.709 42.9478Z" fill="#FF2D20"/>
</g>
<defs>
<clipPath id="clip0_1294_957">
<rect width="34" height="36" fill="white" transform="translate(95 16)"/>
</clipPath>
</defs>
</svg>