<svg width="224" height="84" viewBox="0 0 224 84" fill="none" xmlns="http://www.w3.org/2000/svg">
<path d="M224 8C224 3.58173 220.418 0 216 0H8C3.58173 0 0 3.58172 0 8V69.8628C0 76.0828 6.78705 79.9235 12.1192 76.7208L22.9876 70.1928C24.2317 69.4456 25.6556 69.0508 27.1068 69.0508H216C220.418 69.0508 224 65.4691 224 61.0508V8Z" fill="#121212"/>
<g clip-path="url(#clip0_1294_958)">
<path d="M112.002 22.8007C106.135 22.8007 102.47 25.7329 101.002 31.5997C103.201 28.6671 105.769 27.5675 108.701 28.3007C110.376 28.718 111.572 29.9321 112.897 31.2776C115.054 33.4662 117.55 36 123.002 36C128.868 36 132.534 33.0675 134.002 27.1993C131.802 30.1333 129.235 31.2336 126.302 30.5C124.628 30.0823 123.433 28.8686 122.106 27.5231C119.951 25.3345 117.455 22.8007 112.002 22.8007ZM101.002 36C95.1355 36 91.4698 38.9325 90.002 44.8007C92.2017 41.8667 94.7682 40.7664 97.7013 41.5C99.3757 41.9177 100.572 43.1314 101.897 44.4769C104.054 46.6655 106.55 49.1993 112.002 49.1993C117.868 49.1993 121.534 46.2671 123.002 40.4003C120.802 43.333 118.235 44.4326 115.302 43.6993C113.628 43.282 112.433 42.0679 111.106 40.7224C108.951 38.5338 106.455 36 101.002 36Z" fill="#38BDF8"/>
</g>
<defs>
<clipPath id="clip0_1294_958">
<rect width="44" height="44" fill="white" transform="translate(90 14)"/>
</clipPath>
</defs>
</svg>
