<svg width="9" height="15" viewBox="0 0 9 15" fill="none" xmlns="http://www.w3.org/2000/svg">
<path d="M0.71574 0.347207C0.504836 0.558175 0.386356 0.844272 0.386356 1.14258C0.386356 1.44089 0.504835 1.72699 0.71574 1.93796L6.28449 7.50671L0.71574 13.0755C0.510812 13.2876 0.397418 13.5718 0.399982 13.8668C0.402545 14.1618 0.52086 14.4439 0.729444 14.6525C0.938028 14.8611 1.22019 14.9794 1.51516 14.982C1.81014 14.9845 2.09431 14.8711 2.30649 14.6662L8.67061 8.30208C8.88152 8.09111 9 7.80502 9 7.50671C9 7.2084 8.88152 6.9223 8.67062 6.71133L2.30649 0.347207C2.09552 0.136302 1.80942 0.017822 1.51112 0.0178219C1.21281 0.0178219 0.926709 0.136302 0.71574 0.347207Z" fill="black"/>
</svg>
