<svg width="18" height="18" viewBox="0 0 18 18" fill="none" xmlns="http://www.w3.org/2000/svg">
<path fill-rule="evenodd" clip-rule="evenodd" d="M1.3176 16.6824C2.637 18 4.7574 18 9 18C13.2426 18 15.3639 18 16.6815 16.6815C18 15.3648 18 13.2426 18 9C18 4.7574 18 2.6361 16.6815 1.3176C15.3648 0 13.2426 0 9 0C4.7574 0 2.6361 0 1.3176 1.3176C0 2.637 0 4.7574 0 9C0 13.2426 0 15.3648 1.3176 16.6824ZM15.075 12.6C15.075 12.779 15.0039 12.9507 14.8773 13.0773C14.7507 13.2039 14.579 13.275 14.4 13.275H3.6C3.42098 13.275 3.24929 13.2039 3.1227 13.0773C2.99612 12.9507 2.925 12.779 2.925 12.6C2.925 12.421 2.99612 12.2493 3.1227 12.1227C3.24929 11.9961 3.42098 11.925 3.6 11.925H14.4C14.579 11.925 14.7507 11.9961 14.8773 12.1227C15.0039 12.2493 15.075 12.421 15.075 12.6ZM14.4 9.675C14.579 9.675 14.7507 9.60388 14.8773 9.4773C15.0039 9.35071 15.075 9.17902 15.075 9C15.075 8.82098 15.0039 8.64929 14.8773 8.5227C14.7507 8.39612 14.579 8.325 14.4 8.325H3.6C3.42098 8.325 3.24929 8.39612 3.1227 8.5227C2.99612 8.64929 2.925 8.82098 2.925 9C2.925 9.17902 2.99612 9.35071 3.1227 9.4773C3.24929 9.60388 3.42098 9.675 3.6 9.675H14.4ZM15.075 5.4C15.075 5.57902 15.0039 5.75071 14.8773 5.8773C14.7507 6.00388 14.579 6.075 14.4 6.075H3.6C3.42098 6.075 3.24929 6.00388 3.1227 5.8773C2.99612 5.75071 2.925 5.57902 2.925 5.4C2.925 5.22098 2.99612 5.04929 3.1227 4.9227C3.24929 4.79612 3.42098 4.725 3.6 4.725H14.4C14.579 4.725 14.7507 4.79612 14.8773 4.9227C15.0039 5.04929 15.075 5.22098 15.075 5.4Z" fill="black"/>
</svg>
