<svg width="38" height="27" viewBox="0 0 38 27" fill="none" xmlns="http://www.w3.org/2000/svg">
<path d="M29.4821 18.3729C29.5972 18.3339 29.7059 18.278 29.8046 18.207L32.9631 15.9334C33.729 15.3821 34.5966 14.9943 34.689 15.9334L35.6505 24.4703C35.7457 25.4374 34.7302 26.1245 33.8678 25.6766L26.1752 21.6809C25.2179 21.1837 25.325 19.781 26.3468 19.4349L29.4821 18.3729Z" fill="#050505"/>
<path d="M0 6.12142C0 2.74065 2.74065 0 6.12142 0H28.5666C31.9474 0 34.688 2.74065 34.688 6.12142V15.5076C34.688 18.8884 31.9474 21.629 28.5666 21.629H6.12142C2.74065 21.629 0 18.8884 0 15.5076V6.12142Z" fill="#050505"/>
<path d="M14.4493 12.1287C14.4493 14.0254 12.8586 15.563 10.8965 15.563C8.93437 15.563 7.34375 14.0254 7.34375 12.1287C7.34375 10.2319 8.93437 8.69434 10.8965 8.69434C12.8586 8.69434 14.4493 10.2319 14.4493 12.1287Z" fill="white"/>
<path d="M10.1835 6.2093C10.6666 7.05325 9.59753 6.84255 8.67573 7.2762C7.75392 7.70984 7.3285 8.62362 6.84539 7.77967C6.36229 6.93572 8.00288 4.72398 8.92468 4.29034C9.84648 3.85669 9.70042 5.36535 10.1835 6.2093Z" fill="white"/>
<path d="M20.2812 12.1288C20.2812 14.0255 21.8718 15.5631 23.834 15.5631C25.7961 15.5631 27.3867 14.0255 27.3867 12.1288C27.3867 10.2321 25.7961 8.69446 23.834 8.69446C21.8718 8.69446 20.2812 10.2321 20.2812 12.1288Z" fill="white"/>
<path d="M24.502 6.20942C24.0189 7.05337 25.088 6.84267 26.0098 7.27632C26.9316 7.70997 27.357 8.62374 27.8402 7.77979C28.3233 6.93584 26.6827 4.7241 25.7609 4.29046C24.8391 3.85681 24.9851 5.36547 24.502 6.20942Z" fill="white"/>
</svg>
