<svg width="268" height="86" viewBox="0 0 268 86" fill="none" xmlns="http://www.w3.org/2000/svg">
<rect x="9.99609" y="15.2657" width="85" height="53" rx="15" fill="white"/>
<path d="M82.2365 60.2869C82.5186 60.1913 82.7849 60.0543 83.0266 59.8803L90.7663 54.3092C92.6431 52.9583 95.2782 54.149 95.5045 56.4503L97.3516 75.2279C97.5847 77.5978 95.0964 79.2815 92.9832 78.1839L74.1333 68.3929C71.7873 67.1744 72.0499 63.7373 74.5537 62.8892L82.2365 60.2869Z" fill="white"/>
<ellipse cx="36.7018" cy="44.986" rx="8.7057" ry="8.41551" fill="#4C65E7"/>
<path d="M34.951 30.4813C36.1348 32.5493 33.515 32.033 31.2563 33.0956C28.9975 34.1582 27.955 36.3974 26.7712 34.3293C25.5874 32.2613 29.6075 26.8416 31.8663 25.779C34.1251 24.7164 33.7672 28.4133 34.951 30.4813Z" fill="#4C65E7"/>
<ellipse cx="8.7057" cy="8.41551" rx="8.7057" ry="8.41551" transform="matrix(-1 0 0 1 77.1133 36.5705)" fill="#4C65E7"/>
<path d="M70.0412 30.4814C68.8574 32.5494 71.4771 32.0331 73.7359 33.0957C75.9947 34.1584 77.0372 36.3975 78.221 34.3295C79.4048 32.2614 75.3847 26.8418 73.1259 25.7792C70.8671 24.7166 71.225 28.4134 70.0412 30.4814Z" fill="#4C65E7"/>
<path d="M167.667 34.563C166.419 34.563 165.291 34.283 164.283 33.723C163.275 33.147 162.483 32.347 161.907 31.323C161.331 30.283 161.043 29.083 161.043 27.723C161.043 26.379 161.339 25.187 161.931 24.147C162.523 23.107 163.331 22.307 164.355 21.747C165.379 21.187 166.523 20.907 167.787 20.907C169.051 20.907 170.195 21.187 171.219 21.747C172.243 22.307 173.051 23.107 173.643 24.147C174.235 25.187 174.531 26.379 174.531 27.723C174.531 29.067 174.227 30.259 173.619 31.299C173.011 32.339 172.179 33.147 171.123 33.723C170.083 34.283 168.931 34.563 167.667 34.563ZM167.667 32.187C168.371 32.187 169.027 32.019 169.635 31.683C170.259 31.347 170.763 30.843 171.147 30.171C171.531 29.499 171.723 28.683 171.723 27.723C171.723 26.763 171.539 25.955 171.171 25.299C170.803 24.627 170.315 24.123 169.707 23.787C169.099 23.451 168.443 23.283 167.739 23.283C167.035 23.283 166.379 23.451 165.771 23.787C165.179 24.123 164.707 24.627 164.355 25.299C164.003 25.955 163.827 26.763 163.827 27.723C163.827 29.147 164.187 30.251 164.907 31.035C165.643 31.803 166.563 32.187 167.667 32.187Z" fill="white"/>
<path d="M153.002 20.907C154.042 20.907 154.97 21.123 155.786 21.555C156.618 21.987 157.266 22.627 157.73 23.475C158.21 24.323 158.45 25.347 158.45 26.547V34.347H155.738V26.955C155.738 25.771 155.442 24.867 154.85 24.243C154.258 23.603 153.45 23.283 152.426 23.283C151.402 23.283 150.586 23.603 149.978 24.243C149.386 24.867 149.09 25.771 149.09 26.955V34.347H146.378V26.955C146.378 25.771 146.082 24.867 145.49 24.243C144.898 23.603 144.09 23.283 143.066 23.283C142.042 23.283 141.226 23.603 140.618 24.243C140.026 24.867 139.73 25.771 139.73 26.955V34.347H136.994V21.123H139.73V22.635C140.178 22.091 140.746 21.667 141.434 21.363C142.122 21.059 142.858 20.907 143.642 20.907C144.698 20.907 145.642 21.131 146.474 21.579C147.306 22.027 147.946 22.675 148.394 23.523C148.794 22.723 149.418 22.091 150.266 21.627C151.114 21.147 152.026 20.907 153.002 20.907Z" fill="white"/>
<path d="M134.302 27.411C134.302 27.907 134.27 28.355 134.206 28.755H124.102C124.182 29.811 124.574 30.659 125.278 31.299C125.982 31.939 126.846 32.259 127.87 32.259C129.342 32.259 130.382 31.643 130.99 30.411H133.942C133.542 31.627 132.814 32.627 131.758 33.411C130.718 34.179 129.422 34.563 127.87 34.563C126.606 34.563 125.47 34.283 124.462 33.723C123.47 33.147 122.686 32.347 122.11 31.323C121.55 30.283 121.27 29.083 121.27 27.723C121.27 26.363 121.542 25.171 122.086 24.147C122.646 23.107 123.422 22.307 124.414 21.747C125.422 21.187 126.574 20.907 127.87 20.907C129.118 20.907 130.23 21.179 131.206 21.723C132.182 22.267 132.942 23.035 133.486 24.027C134.03 25.003 134.302 26.131 134.302 27.411ZM131.446 26.547C131.43 25.539 131.07 24.731 130.366 24.123C129.662 23.515 128.79 23.211 127.75 23.211C126.806 23.211 125.998 23.515 125.326 24.123C124.654 24.715 124.254 25.523 124.126 26.547H131.446Z" fill="white"/>
<path d="M105.004 27.675C105.004 26.347 105.276 25.171 105.82 24.147C106.38 23.123 107.132 22.331 108.076 21.771C109.036 21.195 110.1 20.907 111.268 20.907C112.132 20.907 112.98 21.099 113.812 21.483C114.66 21.851 115.332 22.347 115.828 22.971V16.587H118.588V34.347H115.828V32.355C115.38 32.995 114.756 33.523 113.956 33.939C113.172 34.355 112.268 34.563 111.244 34.563C110.092 34.563 109.036 34.275 108.076 33.699C107.132 33.107 106.38 32.291 105.82 31.251C105.276 30.195 105.004 29.003 105.004 27.675ZM115.828 27.723C115.828 26.811 115.636 26.019 115.252 25.347C114.884 24.675 114.396 24.163 113.788 23.811C113.18 23.459 112.524 23.283 111.82 23.283C111.116 23.283 110.46 23.459 109.852 23.811C109.244 24.147 108.748 24.651 108.364 25.323C107.996 25.979 107.812 26.763 107.812 27.675C107.812 28.587 107.996 29.387 108.364 30.075C108.748 30.763 109.244 31.291 109.852 31.659C110.476 32.011 111.132 32.187 111.82 32.187C112.524 32.187 113.18 32.011 113.788 31.659C114.396 31.307 114.884 30.795 115.252 30.123C115.636 29.435 115.828 28.635 115.828 27.723Z" fill="white"/>
<path d="M231.377 46.063V61.313C231.377 62.3463 231.61 63.0963 232.077 63.563C232.577 63.9963 233.41 64.213 234.577 64.213H238.077V68.963H233.577C231.01 68.963 229.044 68.363 227.677 67.163C226.31 65.963 225.627 64.013 225.627 61.313V46.063H222.377V41.413H225.627V34.563H231.377V41.413H238.077V46.063H231.377Z" fill="white"/>
<path d="M188.939 55.063C188.939 52.2963 189.506 49.8463 190.639 47.713C191.806 45.5796 193.373 43.9296 195.339 42.763C197.339 41.563 199.539 40.963 201.939 40.963C204.106 40.963 205.989 41.3963 207.589 42.263C209.223 43.0963 210.523 44.1463 211.489 45.413V41.413H217.239V68.963H211.489V64.863C210.523 66.163 209.206 67.2463 207.539 68.113C205.873 68.9797 203.973 69.413 201.839 69.413C199.473 69.413 197.306 68.813 195.339 67.613C193.373 66.3797 191.806 64.6796 190.639 62.513C189.506 60.313 188.939 57.8296 188.939 55.063ZM211.489 55.163C211.489 53.263 211.089 51.613 210.289 50.213C209.523 48.813 208.506 47.7463 207.239 47.013C205.973 46.2796 204.606 45.913 203.139 45.913C201.673 45.913 200.306 46.2796 199.039 47.013C197.773 47.713 196.739 48.763 195.939 50.163C195.173 51.5296 194.789 53.163 194.789 55.063C194.789 56.963 195.173 58.6296 195.939 60.063C196.739 61.4963 197.773 62.5963 199.039 63.363C200.339 64.0963 201.706 64.463 203.139 64.463C204.606 64.463 205.973 64.0963 207.239 63.363C208.506 62.6297 209.523 61.563 210.289 60.163C211.089 58.7296 211.489 57.063 211.489 55.163Z" fill="white"/>
<path d="M177.35 45.413C178.184 44.013 179.284 42.9296 180.65 42.163C182.05 41.363 183.7 40.963 185.6 40.963V46.863H184.15C181.917 46.863 180.217 47.4296 179.05 48.563C177.917 49.6963 177.35 51.663 177.35 54.463V68.963H171.65V41.413H177.35V45.413Z" fill="white"/>
<path d="M135.863 55.063C135.863 52.2963 136.43 49.8463 137.563 47.713C138.73 45.5796 140.297 43.9296 142.263 42.763C144.263 41.563 146.463 40.963 148.863 40.963C151.03 40.963 152.913 41.3963 154.513 42.263C156.147 43.0963 157.447 44.1463 158.413 45.413V41.413H164.163V68.963H158.413V64.863C157.447 66.163 156.13 67.2463 154.463 68.113C152.797 68.9797 150.897 69.413 148.763 69.413C146.397 69.413 144.23 68.813 142.263 67.613C140.297 66.3797 138.73 64.6796 137.563 62.513C136.43 60.313 135.863 57.8296 135.863 55.063ZM158.413 55.163C158.413 53.263 158.013 51.613 157.213 50.213C156.447 48.813 155.43 47.7463 154.163 47.013C152.897 46.2796 151.53 45.913 150.063 45.913C148.597 45.913 147.23 46.2796 145.963 47.013C144.697 47.713 143.663 48.763 142.863 50.163C142.097 51.5296 141.713 53.163 141.713 55.063C141.713 56.963 142.097 58.6296 142.863 60.063C143.663 61.4963 144.697 62.5963 145.963 63.363C147.263 64.0963 148.63 64.463 150.063 64.463C151.53 64.463 152.897 64.0963 154.163 63.363C155.43 62.6297 156.447 61.563 157.213 60.163C158.013 58.7296 158.413 57.063 158.413 55.163Z" fill="white"/>
<path d="M132.154 54.513C132.154 55.5463 132.087 56.4796 131.954 57.313H110.904C111.071 59.513 111.887 61.2797 113.354 62.613C114.821 63.9463 116.621 64.613 118.754 64.613C121.821 64.613 123.987 63.3296 125.254 60.763H131.404C130.571 63.2963 129.054 65.3796 126.854 67.013C124.687 68.613 121.987 69.413 118.754 69.413C116.121 69.413 113.754 68.8296 111.654 67.663C109.587 66.463 107.954 64.7963 106.754 62.663C105.587 60.4963 105.004 57.9963 105.004 55.163C105.004 52.3296 105.571 49.8463 106.704 47.713C107.871 45.5463 109.487 43.8796 111.554 42.713C113.654 41.5463 116.054 40.963 118.754 40.963C121.354 40.963 123.671 41.5296 125.704 42.663C127.737 43.7963 129.321 45.3963 130.454 47.463C131.587 49.4963 132.154 51.8463 132.154 54.513ZM126.204 52.713C126.171 50.613 125.421 48.9296 123.954 47.663C122.487 46.3963 120.671 45.763 118.504 45.763C116.537 45.763 114.854 46.3963 113.454 47.663C112.054 48.8963 111.221 50.5796 110.954 52.713H126.204Z" fill="white"/>
</svg>
