<svg width="149" height="27" viewBox="0 0 149 27" fill="none" xmlns="http://www.w3.org/2000/svg">
<g clip-path="url(#clip0_1343_637)">
<path d="M29.4821 18.3729C29.5972 18.3339 29.7059 18.278 29.8046 18.207L32.9631 15.9334C33.729 15.3821 34.5966 14.9943 34.689 15.9334L35.6505 24.4703C35.7457 25.4374 34.7302 26.1245 33.8678 25.6766L26.1752 21.6809C25.2179 21.1837 25.325 19.781 26.3468 19.4349L29.4821 18.3729Z" fill="#050505"/>
<path d="M0 6.12142C0 2.74065 2.74065 0 6.12142 0H28.5666C31.9474 0 34.688 2.74065 34.688 6.12142V15.5076C34.688 18.8884 31.9474 21.629 28.5666 21.629H6.12142C2.74065 21.629 0 18.8884 0 15.5076V6.12142Z" fill="#050505"/>
<path d="M14.4493 12.1287C14.4493 14.0254 12.8586 15.563 10.8965 15.563C8.93437 15.563 7.34375 14.0254 7.34375 12.1287C7.34375 10.2319 8.93437 8.69434 10.8965 8.69434C12.8586 8.69434 14.4493 10.2319 14.4493 12.1287Z" fill="white"/>
<path d="M10.1835 6.2093C10.6666 7.05325 9.59753 6.84255 8.67573 7.2762C7.75392 7.70984 7.3285 8.62362 6.84539 7.77967C6.36229 6.93572 8.00288 4.72398 8.92468 4.29034C9.84648 3.85669 9.70042 5.36535 10.1835 6.2093Z" fill="white"/>
<path d="M20.2812 12.1288C20.2812 14.0255 21.8718 15.5631 23.834 15.5631C25.7961 15.5631 27.3867 14.0255 27.3867 12.1288C27.3867 10.2321 25.7961 8.69446 23.834 8.69446C21.8718 8.69446 20.2812 10.2321 20.2812 12.1288Z" fill="white"/>
<path d="M24.502 6.20942C24.0189 7.05337 25.088 6.84267 26.0098 7.27632C26.9316 7.70997 27.357 8.62374 27.8402 7.77979C28.3233 6.93584 26.6827 4.7241 25.7609 4.29046C24.8391 3.85681 24.9851 5.36547 24.502 6.20942Z" fill="white"/>
<path d="M51.8406 26.3844C49.8912 26.3844 48.1912 25.9878 46.7406 25.1944C45.2899 24.4011 44.1566 23.3131 43.3406 21.9304C42.5246 20.5478 42.1166 18.9611 42.1166 17.1704C42.1166 15.7878 42.3432 14.5184 42.7966 13.3624C43.2499 12.2064 43.8846 11.2091 44.7006 10.3704C45.5166 9.5091 46.4799 8.85177 47.5906 8.39843C48.7239 7.92243 49.9479 7.68443 51.2626 7.68443C52.4866 7.68443 53.6199 7.9111 54.6626 8.36443C55.7052 8.7951 56.6006 9.41843 57.3486 10.2344C58.1192 11.0278 58.7086 11.9684 59.1166 13.0564C59.5246 14.1444 59.7059 15.3344 59.6606 16.6264L59.6266 18.1224H45.1766L44.3946 15.1644H55.6486L55.1046 15.7764V15.0284C55.0592 14.4164 54.8552 13.8611 54.4926 13.3624C54.1526 12.8638 53.7106 12.4784 53.1666 12.2064C52.6226 11.9344 52.0106 11.7984 51.3306 11.7984C50.3332 11.7984 49.4832 11.9911 48.7806 12.3764C48.1006 12.7618 47.5792 13.3284 47.2166 14.0764C46.8539 14.8244 46.6726 15.7311 46.6726 16.7964C46.6726 17.8844 46.8992 18.8251 47.3526 19.6184C47.8286 20.4118 48.4859 21.0351 49.3246 21.4884C50.1859 21.9191 51.1946 22.1344 52.3506 22.1344C53.1439 22.1344 53.8692 22.0098 54.5266 21.7604C55.1839 21.5111 55.8866 21.0804 56.6346 20.4684L58.9466 23.6984C58.2892 24.2878 57.5639 24.7864 56.7706 25.1944C55.9772 25.5798 55.1612 25.8744 54.3226 26.0784C53.4839 26.2824 52.6566 26.3844 51.8406 26.3844ZM69.9605 26.3844C68.4645 26.3844 67.1158 25.9764 65.9145 25.1604C64.7131 24.3444 63.7611 23.2338 63.0585 21.8284C62.3558 20.4231 62.0045 18.8138 62.0045 17.0004C62.0045 15.1871 62.3558 13.5891 63.0585 12.2064C63.7838 10.8011 64.7585 9.70177 65.9825 8.90843C67.2065 8.09243 68.6005 7.68443 70.1645 7.68443C71.0485 7.68443 71.8531 7.82043 72.5785 8.09243C73.3265 8.34177 73.9725 8.6931 74.5165 9.14643C75.0831 9.59977 75.5591 10.1211 75.9445 10.7104C76.3298 11.2998 76.6018 11.9344 76.7605 12.6144L75.7405 12.4444V8.05843H80.5345V26.0444H75.6725V21.7264L76.7605 21.6244C76.5791 22.2591 76.2845 22.8598 75.8765 23.4264C75.4685 23.9931 74.9585 24.5031 74.3465 24.9564C73.7571 25.3871 73.0885 25.7384 72.3405 26.0104C71.5925 26.2598 70.7991 26.3844 69.9605 26.3844ZM71.2865 22.2024C72.1931 22.2024 72.9865 21.9871 73.6665 21.5564C74.3465 21.1258 74.8678 20.5251 75.2305 19.7544C75.6158 18.9611 75.8085 18.0431 75.8085 17.0004C75.8085 15.9804 75.6158 15.0851 75.2305 14.3144C74.8678 13.5438 74.3465 12.9431 73.6665 12.5124C72.9865 12.0591 72.1931 11.8324 71.2865 11.8324C70.4025 11.8324 69.6205 12.0591 68.9405 12.5124C68.2831 12.9431 67.7618 13.5438 67.3765 14.3144C66.9911 15.0851 66.7985 15.9804 66.7985 17.0004C66.7985 18.0431 66.9911 18.9611 67.3765 19.7544C67.7618 20.5251 68.2831 21.1258 68.9405 21.5564C69.6205 21.9871 70.4025 22.2024 71.2865 22.2024ZM85.3749 26.0444V8.05843H90.0329L90.2029 13.8384L89.3869 12.6484C89.6589 11.7191 90.1009 10.8804 90.7129 10.1324C91.3249 9.36177 92.0389 8.7611 92.8549 8.33043C93.6936 7.89977 94.5663 7.68443 95.4729 7.68443C95.8583 7.68443 96.2323 7.71843 96.5949 7.78643C96.9576 7.85443 97.2636 7.93377 97.5129 8.02443L96.2209 13.3284C95.9489 13.1924 95.6203 13.0791 95.2349 12.9884C94.8496 12.8751 94.4529 12.8184 94.0449 12.8184C93.5009 12.8184 92.9909 12.9204 92.5149 13.1244C92.0616 13.3058 91.6649 13.5778 91.3249 13.9404C90.9849 14.2804 90.7129 14.6884 90.5089 15.1644C90.3276 15.6404 90.2369 16.1618 90.2369 16.7284V26.0444H85.3749ZM106.251 26.3844C104.755 26.3844 103.407 25.9764 102.205 25.1604C101.004 24.3444 100.052 23.2338 99.3495 21.8284C98.6468 20.4231 98.2955 18.8138 98.2955 17.0004C98.2955 15.1871 98.6468 13.5891 99.3495 12.2064C100.075 10.8011 101.049 9.70177 102.273 8.90843C103.497 8.09243 104.891 7.68443 106.455 7.68443C107.339 7.68443 108.144 7.82043 108.869 8.09243C109.617 8.34177 110.263 8.6931 110.807 9.14643C111.374 9.59977 111.85 10.1211 112.235 10.7104C112.621 11.2998 112.893 11.9344 113.051 12.6144L112.031 12.4444V8.05843H116.825V26.0444H111.963V21.7264L113.051 21.6244C112.87 22.2591 112.575 22.8598 112.167 23.4264C111.759 23.9931 111.249 24.5031 110.637 24.9564C110.048 25.3871 109.379 25.7384 108.631 26.0104C107.883 26.2598 107.09 26.3844 106.251 26.3844ZM107.577 22.2024C108.484 22.2024 109.277 21.9871 109.957 21.5564C110.637 21.1258 111.159 20.5251 111.521 19.7544C111.907 18.9611 112.099 18.0431 112.099 17.0004C112.099 15.9804 111.907 15.0851 111.521 14.3144C111.159 13.5438 110.637 12.9431 109.957 12.5124C109.277 12.0591 108.484 11.8324 107.577 11.8324C106.693 11.8324 105.911 12.0591 105.231 12.5124C104.574 12.9431 104.053 13.5438 103.667 14.3144C103.282 15.0851 103.089 15.9804 103.089 17.0004C103.089 18.0431 103.282 18.9611 103.667 19.7544C104.053 20.5251 104.574 21.1258 105.231 21.5564C105.911 21.9871 106.693 22.2024 107.577 22.2024ZM123.4 26.0444V3.50243H128.228V26.0444H123.4ZM120.034 12.3764V8.05843H131.9V12.3764H120.034Z" fill="black"/>
</g>
<defs>
<clipPath id="clip0_1343_637">
<rect width="148.892" height="26.0889" fill="white"/>
</clipPath>
</defs>
</svg>
